<?xml version="1.0" encoding="UTF-8" standalone="no"?>
<svg
   id="a"
   viewBox="0 0 768 432"
   version="1.1"
   sodipodi:docname="punchout.svg"
   inkscape:version="1.1.2 (0a00cf5339, 2022-02-04)"
   width="8in"
   height="4.5in"
   xmlns:inkscape="http://www.inkscape.org/namespaces/inkscape"
   xmlns:sodipodi="http://sodipodi.sourceforge.net/DTD/sodipodi-0.dtd"
   xmlns="http://www.w3.org/2000/svg"
   xmlns:svg="http://www.w3.org/2000/svg">
  <sodipodi:namedview
     id="namedview1812"
     pagecolor="#ffffff"
     bordercolor="#666666"
     borderopacity="1.0"
     inkscape:pageshadow="2"
     inkscape:pageopacity="0.0"
     inkscape:pagecheckerboard="0"
     showgrid="false"
     inkscape:zoom="1.1666667"
     inkscape:cx="175.28571"
     inkscape:cy="44.142857"
     inkscape:window-width="1128"
     inkscape:window-height="688"
     inkscape:window-x="0"
     inkscape:window-y="0"
     inkscape:window-maximized="1"
     inkscape:current-layer="layer6"
     inkscape:document-units="in"
     units="in" />
  <defs
     id="defs1337">
    <style
       id="style1335">.b{letter-spacing:.01em;}.c{stroke-dasharray:0 0 7.54 7.54;}.c,.d,.e{stroke:#00aeef;stroke-miterlimit:10;stroke-width:1.27px;}.c,.d,.e,.f,.g{fill:none;}.h{letter-spacing:.05em;}.i{letter-spacing:0em;}.j{letter-spacing:.05em;}.k{letter-spacing:-.02em;}.l{letter-spacing:-.02em;}.m,.n{fill:#010101;}.o{fill:#e7e6e6;}.p,.q{fill:#fff;}.r{fill:#e7282e;}.s,.t{fill:#4d494a;}.u,.v,.w,.x{fill:#231f20;}.u,.v,.y,.a`,.aa{font-family:Arial-BoldMT, Arial;}.ab{letter-spacing:-.02em;}.ac{letter-spacing:-.04em;}.ad{letter-spacing:-.04em;}.ae{letter-spacing:-.04em;}.af{font-size:7.96px;}.ag{letter-spacing:-.07em;}.ah{letter-spacing:-.06em;}.ai{letter-spacing:-.06em;}.e{stroke-dasharray:0 0 7.65 7.65;}.v{font-size:9.54px;}.f{stroke-dasharray:0 0 20 .07;}.f,.g{stroke:#ed2224;}.w{font-size:10.9px;}.w,.aj,.x{font-family:Arial-Black, Arial Black;}.aj{fill:#221f1f;}.aj,.x{font-size:9.98px;}.y{font-size:10px;}.y,.a`{fill:#ed2224;}.ak{font-size:11.37px;}.t,.al,.q,.n{fill-rule:evenodd;}.al{fill:#b7d334;}.a`,.aa{font-size:8.74px;}.aa{fill:#2ea1db;}</style>
  </defs>
  <g
     inkscape:groupmode="layer"
     id="layer3"
     inkscape:label="Background" />
  <g
     inkscape:groupmode="layer"
     id="layer2"
     inkscape:label="Cuts">
    <path
       style="fill:none;stroke:#ff0000;stroke-width:0.768;stroke-linecap:butt;stroke-linejoin:miter;stroke-miterlimit:4;stroke-dasharray:none;stroke-opacity:1"
       d="M -28.901786,-229.38616 H 182.11607"
       id="path2343" />
  </g>
  <g
     inkscape:groupmode="layer"
     id="layer1"
     inkscape:label="Guides"
     sodipodi:insensitive="true">
    <g
       id="g1355"
       transform="matrix(1.3481549,0,0,-1.3483199,-2.9017824,433.93148)">
      <polyline
         class="d"
         points="567 311.2 567 315 563.2 315"
         id="polyline1339" />
      <line
         class="c"
         x1="555.65997"
         y1="315"
         x2="16.57"
         y2="315"
         id="line1341" />
      <polyline
         class="d"
         points="12.8 315 9 315 9 311.2"
         id="polyline1343" />
      <line
         class="e"
         x1="9"
         y1="303.54999"
         x2="9"
         y2="16.629999"
         id="line1345" />
      <polyline
         class="d"
         points="9 12.8 9 9 12.8 9"
         id="polyline1347" />
      <line
         class="c"
         x1="20.34"
         y1="9"
         x2="559.42999"
         y2="9"
         id="line1349" />
      <polyline
         class="d"
         points="563.2 9 567 9 567 12.8"
         id="polyline1351" />
      <line
         class="e"
         x1="567"
         y1="20.450001"
         x2="567"
         y2="307.37"
         id="line1353" />
    </g>
  </g>
  <g
     inkscape:groupmode="layer"
     id="layer4"
     inkscape:label="Row"
     style="display:inline">
    <path
       id="rect3530"
       style="fill:none;stroke:#ff0000;stroke-width:0.563527"
       d="M 662.44531,69.001953 C 656.43494,81.207456 644.0133,88.939269 630.4082,88.943359 616.82423,88.91698 604.43071,81.18853 598.42969,69.001953 H 580.94531 C 574.93494,81.207456 562.5133,88.939269 548.9082,88.943359 535.32423,88.91698 522.93071,81.18853 516.92969,69.001953 H 499.44531 C 493.43494,81.207456 481.0133,88.939269 467.4082,88.943359 453.82423,88.91698 441.43071,81.18853 435.42969,69.001953 H 417.94531 C 411.93494,81.207456 399.5133,88.939269 385.9082,88.943359 372.32423,88.91698 359.93071,81.18853 353.92969,69.001953 H 336.44531 C 330.43494,81.207456 318.0133,88.939269 304.4082,88.943359 290.82423,88.91698 278.43071,81.18853 272.42969,69.001953 H 254.94531 C 248.93494,81.207456 236.5133,88.939269 222.9082,88.943359 209.32423,88.91698 196.93071,81.18853 190.92969,69.001953 H 173.44531 C 167.43494,81.207456 155.0133,88.939269 141.4082,88.943359 127.82423,88.91698 115.43071,81.18853 109.42969,69.001953 H 91.945312 C 85.934945,81.207456 73.513305,88.939269 59.908203,88.943359 46.324233,88.916982 33.930703,81.188532 27.929688,69.001953 H 13.556641 V 146.26953 H 758.25977 V 69.001953 H 743.94531 C 737.93494,81.207456 725.5133,88.939269 711.9082,88.943359 698.32423,88.91698 685.93071,81.18853 679.92969,69.001953 Z"
       sodipodi:nodetypes="cccccccccccccccccccccccccccccccc" />
    <path
       style="fill:none;stroke:#ff0000;stroke-width:0.571564"
       d="M 95.631325,175.21965 A 35.722763,35.722763 0 0 1 59.908562,210.94241 35.722763,35.722763 0 0 1 24.185799,175.21965 35.722763,35.722763 0 0 1 59.908562,139.49688 35.722763,35.722763 0 0 1 95.631325,175.21965 Z"
       id="circle3966" />
    <path
       style="fill:none;stroke:#ff0000;stroke-width:0.571564"
       d="m 177.13133,175.21965 a 35.722763,35.722763 0 0 1 -35.72276,35.72276 35.722763,35.722763 0 0 1 -35.72276,-35.72276 35.722763,35.722763 0 0 1 35.72276,-35.72277 35.722763,35.722763 0 0 1 35.72276,35.72277 z"
       id="circle3968" />
    <path
       style="fill:none;stroke:#ff0000;stroke-width:0.571564"
       d="m 258.63133,175.21965 a 35.722763,35.722763 0 0 1 -35.72276,35.72276 35.722763,35.722763 0 0 1 -35.72276,-35.72276 35.722763,35.722763 0 0 1 35.72276,-35.72277 35.722763,35.722763 0 0 1 35.72276,35.72277 z"
       id="circle3970" />
    <path
       style="fill:none;stroke:#ff0000;stroke-width:0.571564"
       d="m 340.13133,175.21965 a 35.722763,35.722763 0 0 1 -35.72276,35.72276 35.722763,35.722763 0 0 1 -35.72276,-35.72276 35.722763,35.722763 0 0 1 35.72276,-35.72277 35.722763,35.722763 0 0 1 35.72276,35.72277 z"
       id="circle3972" />
    <path
       style="fill:none;stroke:#ff0000;stroke-width:0.571564"
       d="m 421.63133,175.21965 a 35.722763,35.722763 0 0 1 -35.72276,35.72276 35.722763,35.722763 0 0 1 -35.72276,-35.72276 35.722763,35.722763 0 0 1 35.72276,-35.72277 35.722763,35.722763 0 0 1 35.72276,35.72277 z"
       id="circle3974" />
    <path
       style="fill:none;stroke:#ff0000;stroke-width:0.571564"
       d="m 503.13133,175.21965 a 35.722763,35.722763 0 0 1 -35.72276,35.72276 35.722763,35.722763 0 0 1 -35.72276,-35.72276 35.722763,35.722763 0 0 1 35.72276,-35.72277 35.722763,35.722763 0 0 1 35.72276,35.72277 z"
       id="circle3976" />
    <path
       style="fill:none;stroke:#ff0000;stroke-width:0.571564"
       d="m 584.63133,175.21965 a 35.722763,35.722763 0 0 1 -35.72276,35.72276 35.722763,35.722763 0 0 1 -35.72276,-35.72276 35.722763,35.722763 0 0 1 35.72276,-35.72277 35.722763,35.722763 0 0 1 35.72276,35.72277 z"
       id="circle3978" />
    <path
       style="fill:none;stroke:#ff0000;stroke-width:0.571564"
       d="m 666.13133,175.21965 a 35.722763,35.722763 0 0 1 -35.72276,35.72276 35.722763,35.722763 0 0 1 -35.72276,-35.72276 35.722763,35.722763 0 0 1 35.72276,-35.72277 35.722763,35.722763 0 0 1 35.72276,35.72277 z"
       id="circle3980" />
    <path
       style="fill:none;stroke:#ff0000;stroke-width:0.571564"
       d="m 747.63133,175.21965 a 35.722763,35.722763 0 0 1 -35.72276,35.72276 35.722763,35.722763 0 0 1 -35.72276,-35.72276 35.722763,35.722763 0 0 1 35.72276,-35.72277 35.722763,35.722763 0 0 1 35.72276,35.72277 z"
       id="circle3982" />
  </g>
  <g
     inkscape:groupmode="layer"
     id="layer6"
     inkscape:label="Row image">
    <g
       id="g1930"
       transform="matrix(0.99655027,0,0,1.4735663,0.20669866,-34.254782)">
      <path
         style="fill:none;stroke:#000000;stroke-width:1.32956px;stroke-linecap:butt;stroke-linejoin:miter;stroke-opacity:1"
         d="M 31.452169,72.097694 V 94.88114"
         id="path1541" />
      <path
         style="fill:none;stroke:#000000;stroke-width:1.32956px;stroke-linecap:butt;stroke-linejoin:miter;stroke-opacity:1"
         d="M 88.382653,72.097697 V 94.88114"
         id="path1541-4" />
      <path
         style="fill:none;stroke:#000000;stroke-width:1.32956px;stroke-linecap:butt;stroke-linejoin:miter;stroke-opacity:1"
         d="m 31.452169,94.88114 c 0,0 27.483117,17.32704 56.930484,0"
         id="path1685" />
    </g>
    <text
       xml:space="preserve"
       style="font-style:normal;font-variant:normal;font-weight:bold;font-stretch:normal;font-size:48px;line-height:1.25;font-family:'DejaVu Serif';-inkscape-font-specification:'DejaVu Serif, Bold';font-variant-ligatures:normal;font-variant-caps:normal;font-variant-numeric:normal;font-variant-east-asian:normal;word-spacing:0px"
       x="39.025391"
       y="66.708008"
       id="text4156"><tspan
         sodipodi:role="line"
         id="tspan4154"
         x="39.025391"
         y="66.708008">Q</tspan></text>
    <text
       xml:space="preserve"
       style="font-style:normal;font-variant:normal;font-weight:normal;font-stretch:normal;font-size:21.3333px;line-height:1.25;font-family:'DejaVu Serif';-inkscape-font-specification:'DejaVu Serif, Normal';font-variant-ligatures:normal;font-variant-caps:normal;font-variant-numeric:normal;font-variant-east-asian:normal;word-spacing:0px"
       x="50.573677"
       y="109.7327"
       id="text7026"><tspan
         sodipodi:role="line"
         id="tspan7024"
         x="50.573677"
         y="109.7327">-1</tspan></text>
  </g>
  <g
     inkscape:groupmode="layer"
     id="layer5"
     inkscape:label="Keys"
     style="display:inline">
    <path
       id="path4943"
       style="display:inline;fill:none;stroke:#ff0000;stroke-width:0.571564"
       d="M 59.908203,17.49609 A 35.722763,35.722763 0 0 0 24.185547,53.21875 35.722763,35.722763 0 0 0 59.908203,88.943359 35.722763,35.722763 0 0 0 95.630859,53.21875 35.722763,35.722763 0 0 0 59.908203,17.49609 Z" />
    <path
       style="display:inline;fill:none;stroke:#ff0000;stroke-width:0.571564"
       d="M 177.13133,53.219646 A 35.722763,35.722763 0 0 1 141.40857,88.94241 35.722763,35.722763 0 0 1 105.68581,53.219646 35.722763,35.722763 0 0 1 141.40857,17.49688 35.722763,35.722763 0 0 1 177.13133,53.219646 Z"
       id="path4945" />
    <path
       style="display:inline;fill:none;stroke:#ff0000;stroke-width:0.571564"
       d="M 258.63133,53.219646 A 35.722763,35.722763 0 0 1 222.90857,88.94241 35.722763,35.722763 0 0 1 187.18581,53.219646 35.722763,35.722763 0 0 1 222.90857,17.49688 35.722763,35.722763 0 0 1 258.63133,53.219646 Z"
       id="path4947" />
    <path
       style="display:inline;fill:none;stroke:#ff0000;stroke-width:0.571564"
       d="M 340.13133,53.219646 A 35.722763,35.722763 0 0 1 304.40857,88.94241 35.722763,35.722763 0 0 1 268.68581,53.219646 35.722763,35.722763 0 0 1 304.40857,17.49688 35.722763,35.722763 0 0 1 340.13133,53.219646 Z"
       id="path4949" />
    <path
       style="display:inline;fill:none;stroke:#ff0000;stroke-width:0.571564"
       d="M 421.63133,53.219646 A 35.722763,35.722763 0 0 1 385.90857,88.94241 35.722763,35.722763 0 0 1 350.18581,53.219646 35.722763,35.722763 0 0 1 385.90857,17.49688 35.722763,35.722763 0 0 1 421.63133,53.219646 Z"
       id="path4951" />
    <path
       style="display:inline;fill:none;stroke:#ff0000;stroke-width:0.571564"
       d="M 503.13133,53.219646 A 35.722763,35.722763 0 0 1 467.40857,88.94241 35.722763,35.722763 0 0 1 431.68581,53.219646 35.722763,35.722763 0 0 1 467.40857,17.49688 35.722763,35.722763 0 0 1 503.13133,53.219646 Z"
       id="path4953" />
    <path
       style="display:inline;fill:none;stroke:#ff0000;stroke-width:0.571564"
       d="M 584.63133,53.219646 A 35.722763,35.722763 0 0 1 548.90857,88.94241 35.722763,35.722763 0 0 1 513.18581,53.219646 35.722763,35.722763 0 0 1 548.90857,17.49688 35.722763,35.722763 0 0 1 584.63133,53.219646 Z"
       id="path4955" />
    <path
       style="display:inline;fill:none;stroke:#ff0000;stroke-width:0.571564"
       d="M 666.13133,53.219646 A 35.722763,35.722763 0 0 1 630.40857,88.94241 35.722763,35.722763 0 0 1 594.68581,53.219646 35.722763,35.722763 0 0 1 630.40857,17.49688 35.722763,35.722763 0 0 1 666.13133,53.219646 Z"
       id="path4957" />
    <path
       style="display:inline;fill:none;stroke:#ff0000;stroke-width:0.571564"
       d="M 747.63133,53.219646 A 35.722763,35.722763 0 0 1 711.90857,88.94241 35.722763,35.722763 0 0 1 676.18581,53.219646 35.722763,35.722763 0 0 1 711.90857,17.49688 35.722763,35.722763 0 0 1 747.63133,53.219646 Z"
       id="path4959" />
    <path
       id="path9723"
       style="display:inline;fill:none;stroke:#000000;stroke-width:4.8;stroke-miterlimit:4;stroke-dasharray:none"
       d="M 59.908203,17.49609 A 35.722763,35.722763 0 0 0 24.185547,53.21875 35.722763,35.722763 0 0 0 59.908203,88.943359 35.722763,35.722763 0 0 0 95.630859,53.21875 35.722763,35.722763 0 0 0 59.908203,17.49609 Z" />
  </g>
  <g
     inkscape:groupmode="layer"
     id="g4067"
     inkscape:label="Keys copy"
     style="display:none">
    <g
       id="g4043">
      <circle
         style="fill:none;stroke:#ff0000;stroke-width:0.571564;stroke-miterlimit:4;stroke-dasharray:none"
         id="circle4025"
         cx="59.908562"
         cy="53.219646"
         r="35.722763" />
      <circle
         style="fill:none;stroke:#ff0000;stroke-width:0.571564;stroke-miterlimit:4;stroke-dasharray:none"
         id="circle4027"
         cx="141.40857"
         cy="53.219646"
         r="35.722763" />
      <circle
         style="fill:none;stroke:#ff0000;stroke-width:0.571564;stroke-miterlimit:4;stroke-dasharray:none"
         id="circle4029"
         cx="222.90857"
         cy="53.219646"
         r="35.722763" />
      <circle
         style="fill:none;stroke:#ff0000;stroke-width:0.571564;stroke-miterlimit:4;stroke-dasharray:none"
         id="circle4031"
         cx="304.40857"
         cy="53.219646"
         r="35.722763" />
      <circle
         style="fill:none;stroke:#ff0000;stroke-width:0.571564;stroke-miterlimit:4;stroke-dasharray:none"
         id="circle4033"
         cx="385.90857"
         cy="53.219646"
         r="35.722763" />
      <circle
         style="fill:none;stroke:#ff0000;stroke-width:0.571564;stroke-miterlimit:4;stroke-dasharray:none"
         id="circle4035"
         cx="467.40857"
         cy="53.219646"
         r="35.722763" />
      <circle
         style="fill:none;stroke:#ff0000;stroke-width:0.571564;stroke-miterlimit:4;stroke-dasharray:none"
         id="circle4037"
         cx="548.90857"
         cy="53.219646"
         r="35.722763" />
      <circle
         style="fill:none;stroke:#ff0000;stroke-width:0.571564;stroke-miterlimit:4;stroke-dasharray:none"
         id="circle4039"
         cx="630.40857"
         cy="53.219646"
         r="35.722763" />
      <circle
         style="fill:none;stroke:#ff0000;stroke-width:0.571564;stroke-miterlimit:4;stroke-dasharray:none"
         id="circle4041"
         cx="711.90857"
         cy="53.219646"
         r="35.722763" />
    </g>
    <rect
       style="fill:none;stroke:#ff0000;stroke-width:0.563527;stroke-miterlimit:4;stroke-dasharray:none"
       id="rect4045"
       width="744.7027"
       height="77.268402"
       x="13.55721"
       y="69.001411"
       ry="0" />
    <g
       id="g4065"
       transform="translate(0,122)">
      <circle
         style="fill:none;stroke:#ff0000;stroke-width:0.571564;stroke-miterlimit:4;stroke-dasharray:none"
         id="circle4047"
         cx="59.908562"
         cy="53.219646"
         r="35.722763" />
      <circle
         style="fill:none;stroke:#ff0000;stroke-width:0.571564;stroke-miterlimit:4;stroke-dasharray:none"
         id="circle4049"
         cx="141.40857"
         cy="53.219646"
         r="35.722763" />
      <circle
         style="fill:none;stroke:#ff0000;stroke-width:0.571564;stroke-miterlimit:4;stroke-dasharray:none"
         id="circle4051"
         cx="222.90857"
         cy="53.219646"
         r="35.722763" />
      <circle
         style="fill:none;stroke:#ff0000;stroke-width:0.571564;stroke-miterlimit:4;stroke-dasharray:none"
         id="circle4053"
         cx="304.40857"
         cy="53.219646"
         r="35.722763" />
      <circle
         style="fill:none;stroke:#ff0000;stroke-width:0.571564;stroke-miterlimit:4;stroke-dasharray:none"
         id="circle4055"
         cx="385.90857"
         cy="53.219646"
         r="35.722763" />
      <circle
         style="fill:none;stroke:#ff0000;stroke-width:0.571564;stroke-miterlimit:4;stroke-dasharray:none"
         id="circle4057"
         cx="467.40857"
         cy="53.219646"
         r="35.722763" />
      <circle
         style="fill:none;stroke:#ff0000;stroke-width:0.571564;stroke-miterlimit:4;stroke-dasharray:none"
         id="circle4059"
         cx="548.90857"
         cy="53.219646"
         r="35.722763" />
      <circle
         style="fill:none;stroke:#ff0000;stroke-width:0.571564;stroke-miterlimit:4;stroke-dasharray:none"
         id="circle4061"
         cx="630.40857"
         cy="53.219646"
         r="35.722763" />
      <circle
         style="fill:none;stroke:#ff0000;stroke-width:0.571564;stroke-miterlimit:4;stroke-dasharray:none"
         id="circle4063"
         cx="711.90857"
         cy="53.219646"
         r="35.722763" />
    </g>
  </g>
</svg>
