<?xml version="1.0" encoding="UTF-8" standalone="no"?>
<!-- Generator: Adobe Illustrator 22.1.0, SVG Export Plug-In . SVG Version: 6.00 Build 0)  -->

<svg
   xmlns:dc="http://purl.org/dc/elements/1.1/"
   xmlns:cc="http://creativecommons.org/ns#"
   xmlns:rdf="http://www.w3.org/1999/02/22-rdf-syntax-ns#"
   xmlns:svg="http://www.w3.org/2000/svg"
   xmlns="http://www.w3.org/2000/svg"
   xmlns:sodipodi="http://sodipodi.sourceforge.net/DTD/sodipodi-0.dtd"
   xmlns:inkscape="http://www.inkscape.org/namespaces/inkscape"
   version="1.1"
   id="Layer_1"
   x="0px"
   y="0px"
   viewBox="0 0 882 1098"
   style="enable-background:new 0 0 882 1098;"
   xml:space="preserve"
   sodipodi:docname="MediumStoutBoxTop.svg"
   inkscape:version="0.92.3 (2405546, 2018-03-11)"><metadata
   id="metadata2173"><rdf:RDF><cc:Work
       rdf:about=""><dc:format>image/svg+xml</dc:format><dc:type
         rdf:resource="http://purl.org/dc/dcmitype/StillImage" /></cc:Work></rdf:RDF></metadata><defs
   id="defs2171">
	
	
	
	
	
	
	
	
	
	
	
	
	
	
</defs><sodipodi:namedview
   pagecolor="#ffffff"
   bordercolor="#666666"
   borderopacity="1"
   objecttolerance="10"
   gridtolerance="10"
   guidetolerance="10"
   inkscape:pageopacity="0"
   inkscape:pageshadow="2"
   inkscape:window-width="1981"
   inkscape:window-height="942"
   id="namedview2169"
   showgrid="false"
   inkscape:zoom="0.68"
   inkscape:cx="441"
   inkscape:cy="549"
   inkscape:window-x="67"
   inkscape:window-y="27"
   inkscape:window-maximized="1"
   inkscape:current-layer="layer2" />
<style
   type="text/css"
   id="style1592">
	.st0{fill-opacity:0.5;}
	.st1{fill:#D0D1D2;}
	.st2{fill:#231F20;}
	.st3{font-family:'Arial-BoldMT';}
	.st4{font-size:9.0915px;}
	.st5{fill-rule:evenodd;clip-rule:evenodd;}
	.st6{fill-rule:evenodd;clip-rule:evenodd;fill:#B7D333;}
	.st7{fill-rule:evenodd;clip-rule:evenodd;fill:#FFFFFF;}
	.st8{fill-rule:evenodd;clip-rule:evenodd;fill:#4D494A;}
	.st9{fill:#4D494A;}
	.st10{fill:#FFFFFF;}
	.st11{fill:none;stroke:#00A551;stroke-miterlimit:10;}
	.st12{fill:none;stroke:#00ADEE;stroke-miterlimit:10;}
	.st13{fill:none;stroke:#00ADEE;stroke-miterlimit:10;stroke-dasharray:12.1177,12.1177;}
	.st14{fill:none;stroke:#00ADEE;stroke-miterlimit:10;stroke-dasharray:12.1274,12.1274;}
	.st15{fill:none;stroke:#00ADEE;stroke-miterlimit:10;stroke-dasharray:13.1988,13.1988;}
	.st16{fill:none;stroke:#00ADEE;stroke-miterlimit:10;stroke-dasharray:13.1994,13.1994;}
	.st17{fill:none;stroke:#00ADEE;stroke-miterlimit:10;stroke-dasharray:12.05,12.05;}
	.st18{fill:none;stroke:#00ADEE;stroke-miterlimit:10;stroke-dasharray:12.1224,12.1224;}
	.st19{fill:none;stroke:#EC1E28;}
	.st20{font-family:'Arial-Black';}
	.st21{font-size:11.4736px;}
	.st22{fill:#2BA6DE;}
	.st23{font-size:9.5613px;}
	.st24{fill:#EC1E28;}
	.st25{fill:#929497;}
	.st26{fill:none;stroke:#2BA6DE;}
	.st27{fill:none;stroke:#2BA6DE;stroke-dasharray:11.7014,8.776;}
	.st28{fill:none;stroke:#929497;}
</style>

<g
   inkscape:groupmode="layer"
   id="layer2"
   inkscape:label="Background"
   style="display:inline"><rect
     style="opacity:1;fill:#cccccc;fill-opacity:1;stroke:none;stroke-width:1.88976383;stroke-linecap:round;stroke-linejoin:round;stroke-miterlimit:4;stroke-dasharray:none;stroke-dashoffset:0;stroke-opacity:1;paint-order:stroke fill markers"
     id="rect3605"
     width="882"
     height="1098"
     x="0"
     y="0" /></g><g
   inkscape:groupmode="layer"
   id="layer1"
   inkscape:label="Guides"
   style="display:inline"
   sodipodi:insensitive="true"><polygon
     style="fill:none;stroke:#ec1e28"
     id="polygon2008"
     points="654.7,71.7 654.7,71.7 656.1,225.5 741.1,140.7 805.2,140.7 804.9,225.5 810.2,229.1 873,229.1 873,868.9 810.2,868.9 805.2,872.5 805.2,957.3 741.1,957.3 656.1,872.5 654.7,1026.3 654.7,1026.3 649.7,1089 232.3,1089 227.3,1026.3 227.3,1026.3 225.9,872.5 140.9,957.3 76.8,957.3 76.8,872.5 71.8,868.9 9,868.9 9,229.1 71.8,229.1 76.8,225.5 76.8,140.7 140.9,140.7 225.9,225.5 227.3,71.7 232.3,9 649.7,9 "
     class="st19" /><rect
     style="fill:none;stroke:#00a551;stroke-miterlimit:10"
     id="rect1898"
     height="648"
     width="430.20001"
     class="st11"
     y="225"
     x="225.89999" /><g
     id="g1918">
		<g
   id="g1916">
			<polyline
   style="fill:none;stroke:#00adee;stroke-miterlimit:10"
   id="polyline1900"
   points="240.9,864 234.9,864 234.9,858    "
   class="st12" />
			<line
   style="fill:none;stroke:#00adee;stroke-miterlimit:10;stroke-dasharray:12.1177, 12.1177"
   id="line1902"
   y2="246.10001"
   x2="234.89999"
   y1="845.90002"
   x1="234.89999"
   class="st13" />
			<polyline
   style="fill:none;stroke:#00adee;stroke-miterlimit:10"
   id="polyline1904"
   points="234.9,240 234.9,234 240.9,234    "
   class="st12" />
			<line
   style="fill:none;stroke:#00adee;stroke-miterlimit:10;stroke-dasharray:12.1274, 12.1274"
   id="line1906"
   y2="234"
   x2="635"
   y1="234"
   x1="253"
   class="st14" />
			<polyline
   style="fill:none;stroke:#00adee;stroke-miterlimit:10"
   id="polyline1908"
   points="641.1,234 647.1,234 647.1,240    "
   class="st12" />
			<line
   style="fill:none;stroke:#00adee;stroke-miterlimit:10;stroke-dasharray:12.1177, 12.1177"
   id="line1910"
   y2="851.90002"
   x2="647.09998"
   y1="252.10001"
   x1="647.09998"
   class="st13" />
			<polyline
   style="fill:none;stroke:#00adee;stroke-miterlimit:10"
   id="polyline1912"
   points="647.1,858 647.1,864 641.1,864    "
   class="st12" />
			<line
   style="fill:none;stroke:#00adee;stroke-miterlimit:10;stroke-dasharray:12.1274, 12.1274"
   id="line1914"
   y2="864"
   x2="247"
   y1="864"
   x1="629"
   class="st14" />
		</g>
	</g><rect
     style="fill:none;stroke:#00a551;stroke-miterlimit:10"
     id="rect1920"
     height="648"
     width="148.8"
     class="st11"
     y="225"
     x="656.09998" /><g
     id="g1940">
		<g
   id="g1938">
			<polyline
   style="fill:none;stroke:#00adee;stroke-miterlimit:10"
   id="polyline1922"
   points="671.1,864 665.1,864 665.1,858    "
   class="st12" />
			<line
   style="fill:none;stroke:#00adee;stroke-miterlimit:10;stroke-dasharray:12.1177, 12.1177"
   id="line1924"
   y2="246.10001"
   x2="665.09998"
   y1="845.90002"
   x1="665.09998"
   class="st13" />
			<polyline
   style="fill:none;stroke:#00adee;stroke-miterlimit:10"
   id="polyline1926"
   points="665.1,240 665.1,234 671.1,234    "
   class="st12" />
			<line
   style="fill:none;stroke:#00adee;stroke-miterlimit:10;stroke-dasharray:13.1988, 13.1988"
   id="line1928"
   y2="234"
   x2="783.29999"
   y1="234"
   x1="684.29999"
   class="st15" />
			<polyline
   style="fill:none;stroke:#00adee;stroke-miterlimit:10"
   id="polyline1930"
   points="789.9,234 795.9,234 795.9,240    "
   class="st12" />
			<line
   style="fill:none;stroke:#00adee;stroke-miterlimit:10;stroke-dasharray:12.1177, 12.1177"
   id="line1932"
   y2="851.90002"
   x2="795.90002"
   y1="252.10001"
   x1="795.90002"
   class="st13" />
			<polyline
   style="fill:none;stroke:#00adee;stroke-miterlimit:10"
   id="polyline1934"
   points="795.9,858 795.9,864 789.9,864    "
   class="st12" />
			<line
   style="fill:none;stroke:#00adee;stroke-miterlimit:10;stroke-dasharray:13.1988, 13.1988"
   id="line1936"
   y2="864"
   x2="677.70001"
   y1="864"
   x1="776.70001"
   class="st15" />
		</g>
	</g><rect
     style="fill:none;stroke:#00a551;stroke-miterlimit:10"
     id="rect1942"
     height="648"
     width="148.8"
     class="st11"
     y="225"
     x="77.099998" /><g
     id="g1962">
		<g
   id="g1960">
			<polyline
   style="fill:none;stroke:#00adee;stroke-miterlimit:10"
   id="polyline1944"
   points="92.1,864 86.1,864 86.1,858    "
   class="st12" />
			<line
   style="fill:none;stroke:#00adee;stroke-miterlimit:10;stroke-dasharray:12.1177, 12.1177"
   id="line1946"
   y2="246.10001"
   x2="86.099998"
   y1="845.90002"
   x1="86.099998"
   class="st13" />
			<polyline
   style="fill:none;stroke:#00adee;stroke-miterlimit:10"
   id="polyline1948"
   points="86.1,240 86.1,234 92.1,234    "
   class="st12" />
			<line
   style="fill:none;stroke:#00adee;stroke-miterlimit:10;stroke-dasharray:13.1988, 13.1988"
   id="line1950"
   y2="234"
   x2="204.3"
   y1="234"
   x1="105.3"
   class="st15" />
			<polyline
   style="fill:none;stroke:#00adee;stroke-miterlimit:10"
   id="polyline1952"
   points="210.9,234 216.9,234 216.9,240    "
   class="st12" />
			<line
   style="fill:none;stroke:#00adee;stroke-miterlimit:10;stroke-dasharray:12.1177, 12.1177"
   id="line1954"
   y2="851.90002"
   x2="216.89999"
   y1="252.10001"
   x1="216.89999"
   class="st13" />
			<polyline
   style="fill:none;stroke:#00adee;stroke-miterlimit:10"
   id="polyline1956"
   points="216.9,858 216.9,864 210.9,864    "
   class="st12" />
			<line
   style="fill:none;stroke:#00adee;stroke-miterlimit:10;stroke-dasharray:13.1988, 13.1988"
   id="line1958"
   y2="864"
   x2="98.699997"
   y1="864"
   x1="197.7"
   class="st15" />
		</g>
	</g><polygon
     style="fill:none;stroke:#00a551;stroke-miterlimit:10"
     id="polygon1964"
     points="654.7,76.2 656.1,225 225.9,225 227.2,76.2 "
     class="st11" /><g
     id="g1984">
		<g
   id="g1982">
			<polyline
   style="fill:none;stroke:#00adee;stroke-miterlimit:10"
   id="polyline1966"
   points="241,216 235,216 235,210    "
   class="st12" />
			<line
   style="fill:none;stroke:#00adee;stroke-miterlimit:10;stroke-dasharray:13.1994, 13.1994"
   id="line1968"
   y2="97.800003"
   x2="236.10001"
   y1="196.8"
   x1="235.2"
   class="st16" />
			<polyline
   style="fill:none;stroke:#00adee;stroke-miterlimit:10"
   id="polyline1970"
   points="236.1,91.2 236.2,85.2 242.2,85.2    "
   class="st12" />
			<line
   style="fill:none;stroke:#00adee;stroke-miterlimit:10;stroke-dasharray:12.05, 12.05"
   id="line1972"
   y2="85.199997"
   x2="633.79999"
   y1="85.199997"
   x1="254.2"
   class="st17" />
			<polyline
   style="fill:none;stroke:#00adee;stroke-miterlimit:10"
   id="polyline1974"
   points="639.8,85.2 645.8,85.2 645.9,91.2    "
   class="st12" />
			<line
   style="fill:none;stroke:#00adee;stroke-miterlimit:10;stroke-dasharray:13.1994, 13.1994"
   id="line1976"
   y2="203.39999"
   x2="646.90002"
   y1="104.4"
   x1="646"
   class="st16" />
			<polyline
   style="fill:none;stroke:#00adee;stroke-miterlimit:10"
   id="polyline1978"
   points="647,210 647,216 641,216    "
   class="st12" />
			<line
   style="fill:none;stroke:#00adee;stroke-miterlimit:10;stroke-dasharray:12.1224, 12.1224"
   id="line1980"
   y2="216"
   x2="247"
   y1="216"
   x1="628.90002"
   class="st18" />
		</g>
	</g><polygon
     style="fill:none;stroke:#00a551;stroke-miterlimit:10"
     id="polygon1986"
     points="227.3,1021.8 225.9,873 656.1,873 654.8,1021.8 "
     class="st11" /><g
     id="g2006">
		<g
   id="g2004">
			<polyline
   style="fill:none;stroke:#00adee;stroke-miterlimit:10"
   id="polyline1988"
   points="242.2,1012.8 236.2,1012.8 236.1,1006.8    "
   class="st12" />
			<line
   style="fill:none;stroke:#00adee;stroke-miterlimit:10;stroke-dasharray:13.1994, 13.1994"
   id="line1990"
   y2="894.59998"
   x2="235.10001"
   y1="993.59998"
   x1="236"
   class="st16" />
			<polyline
   style="fill:none;stroke:#00adee;stroke-miterlimit:10"
   id="polyline1992"
   points="235,888 235,882 241,882    "
   class="st12" />
			<line
   style="fill:none;stroke:#00adee;stroke-miterlimit:10;stroke-dasharray:12.1224, 12.1224"
   id="line1994"
   y2="882"
   x2="635"
   y1="882"
   x1="253.10001"
   class="st18" />
			<polyline
   style="fill:none;stroke:#00adee;stroke-miterlimit:10"
   id="polyline1996"
   points="641,882 647,882 647,888    "
   class="st12" />
			<line
   style="fill:none;stroke:#00adee;stroke-miterlimit:10;stroke-dasharray:13.1994, 13.1994"
   id="line1998"
   y2="1000.2"
   x2="646"
   y1="901.20001"
   x1="646.79999"
   class="st16" />
			<polyline
   style="fill:none;stroke:#00adee;stroke-miterlimit:10"
   id="polyline2000"
   points="645.9,1006.8 645.8,1012.8 639.8,1012.8    "
   class="st12" />
			<line
   style="fill:none;stroke:#00adee;stroke-miterlimit:10;stroke-dasharray:12.05, 12.05"
   id="line2002"
   y2="1012.8"
   x2="248.2"
   y1="1012.8"
   x1="627.79999"
   class="st17" />
		</g>
	</g><g
     style="display:inline"
     id="g1596">
		<path
   style="fill-opacity:0.5"
   inkscape:connector-curvature="0"
   id="path1594"
   d="M 0,0 V 1098 H 882 V 0 Z m 873,868.9 h -62.8 c 0,0 -5,3.6 -5,3.6 v 84.8 h -64.1 l -85,-84.8 -1.4,153.8 -5,62.7 H 232.3 l -5,-62.7 -1.4,-153.8 -85,84.8 H 76.8 v -84.8 l -5,-3.6 H 9 V 229.1 h 62.8 l 5,-3.6 v -84.8 h 64.1 l 85,84.8 1.4,-153.8 5,-62.7 h 417.3 l 5,62.7 1.4,153.8 85,-84.8 h 64.1 l -0.3,84.8 5.3,3.6 H 873 Z"
   class="st0" />
	</g></g></svg>