<?xml version="1.0" encoding="utf-8"?>
<!DOCTYPE svg PUBLIC "-//W3C//DTD SVG 1.1//EN" "http://www.w3.org/Graphics/SVG/1.1/DTD/svg11.dtd">
<svg xmlns="http://www.w3.org/2000/svg" xmlns:svg="http://www.w3.org/2000/svg" xmlns:xlink="http://www.w3.org/1999/xlink" viewBox="0 0 768 432" version="1.1" id="a"><g id="layer3"/><g id="layer6"/><g id="layer15"><g id="layer26"><g transform="translate(-773.68383,188.56072)" id="g251203"><circle transform="" cy="-73.502754" stroke="#FF0000" fill="none" cx="1445.0044" stroke-width="0.001" r="30.24"/></g><rect x="524.62897" stroke-width="0.001" y="11.002219" fill="none" width="230.74832" stroke="#FF0000" transform="" height="202.08582"/><g id="g251561" transform="translate(-773.68383,394.56072)"><circle stroke="#FF0000" fill="none" transform="" cy="-73.502754" stroke-width="0.001" r="30.24" cx="1445.0044"/></g><rect x="524.62891" stroke-width="0.001" y="217.00221" width="230.65234" stroke="#FF0000" fill="none" height="202.08585" transform=""/></g><g id="layer22"><path stroke-width="0.001" fill="none" stroke="#FF0000" d="M 662.44531,69.001953 C 656.43494,81.207456 644.0133,88.939269 630.4082,88.943359 616.82423,88.91698 604.43071,81.18853 598.42969,69.001953 H 580.94531 C 574.93494,81.207456 562.5133,88.939269 548.9082,88.943359 535.32423,88.91698 522.93071,81.18853 516.92969,69.001953 H 499.44531 C 493.43494,81.207456 481.0133,88.939269 467.4082,88.943359 453.82423,88.91698 441.43071,81.18853 435.42969,69.001953 H 417.94531 C 411.93494,81.207456 399.5133,88.939269 385.9082,88.943359 372.32423,88.91698 359.93071,81.18853 353.92969,69.001953 H 336.44531 C 330.43494,81.207456 318.0133,88.939269 304.4082,88.943359 290.82423,88.91698 278.43071,81.18853 272.42969,69.001953 H 254.94531 C 248.93494,81.207456 236.5133,88.939269 222.9082,88.943359 209.32423,88.91698 196.93071,81.18853 190.92969,69.001953 H 173.44531 C 167.43494,81.207456 155.0133,88.939269 141.4082,88.943359 127.82423,88.91698 115.43071,81.18853 109.42969,69.001953 H 91.945312 C 85.934945,81.207456 73.513305,88.939269 59.908203,88.943359 46.324233,88.916982 33.930703,81.188532 27.929688,69.001953 H 13.556641 V 156.26953 H 758.25977 V 69.001953 H 743.94531 C 737.93494,81.207456 725.5133,88.939269 711.9082,88.943359 698.32423,88.91698 685.93071,81.18853 679.92969,69.001953 Z" transform="matrix(0.68426802,0,0,0.68426802,1.93147,-35.690301)"/><path stroke-width="0.001" transform="matrix(0.68426802,0,0,0.68426802,1.93147,32.736508)" d="M 662.44531,69.001953 C 656.43494,81.207456 644.0133,88.939269 630.4082,88.943359 616.82423,88.91698 604.43071,81.18853 598.42969,69.001953 H 580.94531 C 574.93494,81.207456 562.5133,88.939269 548.9082,88.943359 535.32423,88.91698 522.93071,81.18853 516.92969,69.001953 H 499.44531 C 493.43494,81.207456 481.0133,88.939269 467.4082,88.943359 453.82423,88.91698 441.43071,81.18853 435.42969,69.001953 H 417.94531 C 411.93494,81.207456 399.5133,88.939269 385.9082,88.943359 372.32423,88.91698 359.93071,81.18853 353.92969,69.001953 H 336.44531 C 330.43494,81.207456 318.0133,88.939269 304.4082,88.943359 290.82423,88.91698 278.43071,81.18853 272.42969,69.001953 H 254.94531 C 248.93494,81.207456 236.5133,88.939269 222.9082,88.943359 209.32423,88.91698 196.93071,81.18853 190.92969,69.001953 H 173.44531 C 167.43494,81.207456 155.0133,88.939269 141.4082,88.943359 127.82423,88.91698 115.43071,81.18853 109.42969,69.001953 H 91.945312 C 85.934945,81.207456 73.513305,88.939269 59.908203,88.943359 46.324233,88.916982 33.930703,81.188532 27.929688,69.001953 H 13.556641 V 156.26953 H 758.25977 V 69.001953 H 743.94531 C 737.93494,81.207456 725.5133,88.939269 711.9082,88.943359 698.32423,88.91698 685.93071,81.18853 679.92969,69.001953 Z" fill="none" stroke="#FF0000"/><path transform="matrix(0.68426802,0,0,0.68426802,1.93147,99.794771)" d="M 662.44531,69.001953 C 656.43494,81.207456 644.0133,88.939269 630.4082,88.943359 616.82423,88.91698 604.43071,81.18853 598.42969,69.001953 H 580.94531 C 574.93494,81.207456 562.5133,88.939269 548.9082,88.943359 535.32423,88.91698 522.93071,81.18853 516.92969,69.001953 H 499.44531 C 493.43494,81.207456 481.0133,88.939269 467.4082,88.943359 453.82423,88.91698 441.43071,81.18853 435.42969,69.001953 H 417.94531 C 411.93494,81.207456 399.5133,88.939269 385.9082,88.943359 372.32423,88.91698 359.93071,81.18853 353.92969,69.001953 H 336.44531 C 330.43494,81.207456 318.0133,88.939269 304.4082,88.943359 290.82423,88.91698 278.43071,81.18853 272.42969,69.001953 H 254.94531 C 248.93494,81.207456 236.5133,88.939269 222.9082,88.943359 209.32423,88.91698 196.93071,81.18853 190.92969,69.001953 H 173.44531 C 167.43494,81.207456 155.0133,88.939269 141.4082,88.943359 127.82423,88.91698 115.43071,81.18853 109.42969,69.001953 H 91.945312 C 85.934945,81.207456 73.513305,88.939269 59.908203,88.943359 46.324233,88.916982 33.930703,81.188532 27.929688,69.001953 H 13.556641 V 156.26953 H 758.25977 V 69.001953 H 743.94531 C 737.93494,81.207456 725.5133,88.939269 711.9082,88.943359 698.32423,88.91698 685.93071,81.18853 679.92969,69.001953 Z" fill="none" stroke="#FF0000" stroke-width="0.001"/><path stroke="#FF0000" fill="none" transform="matrix(0.68426802,0,0,0.68426802,1.93147,168.22157)" d="M 662.44531,69.001953 C 656.43494,81.207456 644.0133,88.939269 630.4082,88.943359 616.82423,88.91698 604.43071,81.18853 598.42969,69.001953 H 580.94531 C 574.93494,81.207456 562.5133,88.939269 548.9082,88.943359 535.32423,88.91698 522.93071,81.18853 516.92969,69.001953 H 499.44531 C 493.43494,81.207456 481.0133,88.939269 467.4082,88.943359 453.82423,88.91698 441.43071,81.18853 435.42969,69.001953 H 417.94531 C 411.93494,81.207456 399.5133,88.939269 385.9082,88.943359 372.32423,88.91698 359.93071,81.18853 353.92969,69.001953 H 336.44531 C 330.43494,81.207456 318.0133,88.939269 304.4082,88.943359 290.82423,88.91698 278.43071,81.18853 272.42969,69.001953 H 254.94531 C 248.93494,81.207456 236.5133,88.939269 222.9082,88.943359 209.32423,88.91698 196.93071,81.18853 190.92969,69.001953 H 173.44531 C 167.43494,81.207456 155.0133,88.939269 141.4082,88.943359 127.82423,88.91698 115.43071,81.18853 109.42969,69.001953 H 91.945312 C 85.934945,81.207456 73.513305,88.939269 59.908203,88.943359 46.324233,88.916982 33.930703,81.188532 27.929688,69.001953 H 13.556641 V 156.26953 H 758.25977 V 69.001953 H 743.94531 C 737.93494,81.207456 725.5133,88.939269 711.9082,88.943359 698.32423,88.91698 685.93071,81.18853 679.92969,69.001953 Z" stroke-width="0.001"/><path stroke="#FF0000" fill="none" transform="matrix(0.68426802,0,0,0.68426802,1.93147,233.79477)" d="M 662.44531,69.001953 C 656.43494,81.207456 644.0133,88.939269 630.4082,88.943359 616.82423,88.91698 604.43071,81.18853 598.42969,69.001953 H 580.94531 C 574.93494,81.207456 562.5133,88.939269 548.9082,88.943359 535.32423,88.91698 522.93071,81.18853 516.92969,69.001953 H 499.44531 C 493.43494,81.207456 481.0133,88.939269 467.4082,88.943359 453.82423,88.91698 441.43071,81.18853 435.42969,69.001953 H 417.94531 C 411.93494,81.207456 399.5133,88.939269 385.9082,88.943359 372.32423,88.91698 359.93071,81.18853 353.92969,69.001953 H 336.44531 C 330.43494,81.207456 318.0133,88.939269 304.4082,88.943359 290.82423,88.91698 278.43071,81.18853 272.42969,69.001953 H 254.94531 C 248.93494,81.207456 236.5133,88.939269 222.9082,88.943359 209.32423,88.91698 196.93071,81.18853 190.92969,69.001953 H 173.44531 C 167.43494,81.207456 155.0133,88.939269 141.4082,88.943359 127.82423,88.91698 115.43071,81.18853 109.42969,69.001953 H 91.945312 C 85.934945,81.207456 73.513305,88.939269 59.908203,88.943359 46.324233,88.916982 33.930703,81.188532 27.929688,69.001953 H 13.556641 V 156.26953 H 758.25977 V 69.001953 H 743.94531 C 737.93494,81.207456 725.5133,88.939269 711.9082,88.943359 698.32423,88.91698 685.93071,81.18853 679.92969,69.001953 Z" stroke-width="0.001"/><path transform="matrix(0.68426802,0,0,0.68426802,1.93147,302.22157)" d="M 662.44531,69.001953 C 656.43494,81.207456 644.0133,88.939269 630.4082,88.943359 616.82423,88.91698 604.43071,81.18853 598.42969,69.001953 H 580.94531 C 574.93494,81.207456 562.5133,88.939269 548.9082,88.943359 535.32423,88.91698 522.93071,81.18853 516.92969,69.001953 H 499.44531 C 493.43494,81.207456 481.0133,88.939269 467.4082,88.943359 453.82423,88.91698 441.43071,81.18853 435.42969,69.001953 H 417.94531 C 411.93494,81.207456 399.5133,88.939269 385.9082,88.943359 372.32423,88.91698 359.93071,81.18853 353.92969,69.001953 H 336.44531 C 330.43494,81.207456 318.0133,88.939269 304.4082,88.943359 290.82423,88.91698 278.43071,81.18853 272.42969,69.001953 H 254.94531 C 248.93494,81.207456 236.5133,88.939269 222.9082,88.943359 209.32423,88.91698 196.93071,81.18853 190.92969,69.001953 H 173.44531 C 167.43494,81.207456 155.0133,88.939269 141.4082,88.943359 127.82423,88.91698 115.43071,81.18853 109.42969,69.001953 H 91.945312 C 85.934945,81.207456 73.513305,88.939269 59.908203,88.943359 46.324233,88.916982 33.930703,81.188532 27.929688,69.001953 H 13.556641 V 156.26953 H 758.25977 V 69.001953 H 743.94531 C 737.93494,81.207456 725.5133,88.939269 711.9082,88.943359 698.32423,88.91698 685.93071,81.18853 679.92969,69.001953 Z" stroke="#FF0000" fill="none" stroke-width="0.001"/></g></g></svg>
